<?xml version="1.0" standalone="no"?>
<!DOCTYPE svg PUBLIC "-//W3C//DTD SVG 20010904//EN"
 "http://www.w3.org/TR/2001/REC-SVG-20010904/DTD/svg10.dtd">
<svg version="1.0" xmlns="http://www.w3.org/2000/svg"
 width="640.000000pt" height="640.000000pt" viewBox="0 0 640.000000 640.000000"
 preserveAspectRatio="xMidYMid meet">
<metadata>
Created by potrace 1.14, written by Peter Selinger 2001-2017
</metadata>
<g transform="translate(0.000000,640.000000) scale(0.100000,-0.100000)"
fill="#000000" stroke="none">
<path d="M0 5110 c0 -908 3 -1290 11 -1290 6 0 8 -9 4 -20 -8 -25 20 -28 33
-3 6 10 16 14 26 10 14 -5 15 -3 6 12 -8 16 -7 19 8 16 9 -2 25 -4 36 -4 13
-1 16 -6 12 -17 -5 -14 -4 -15 8 -5 9 7 18 21 21 32 7 19 35 27 35 9 0 -5 -7
-10 -15 -10 -8 0 -15 -4 -15 -10 0 -5 18 -9 40 -7 46 2 50 10 15 33 -14 9 -25
22 -25 30 0 7 -8 18 -18 24 -12 8 -13 13 -5 16 16 7 17 36 1 52 -9 9 -16 8
-31 -6 -11 -9 -36 -17 -58 -18 -36 0 -38 1 -33 25 4 14 17 49 30 78 17 37 22
60 17 83 -5 29 -4 32 14 26 11 -4 31 -2 45 3 14 5 31 5 40 0 11 -6 20 -4 28 6
10 12 16 13 27 3 11 -9 22 -9 49 1 31 11 38 11 54 -4 11 -10 19 -20 19 -24 -3
-25 16 -51 37 -51 13 0 24 -4 24 -10 0 -16 22 -12 36 8 12 15 13 14 14 -14 0
-32 54 -104 78 -104 6 0 12 -6 12 -14 0 -8 6 -21 14 -28 7 -8 17 -24 20 -36 4
-12 12 -20 17 -17 5 4 9 -3 9 -15 0 -12 -4 -18 -10 -15 -11 7 -23 -35 -18 -62
2 -10 10 -18 18 -18 20 0 31 -16 24 -36 -2 -10 2 -19 12 -23 10 -4 14 -13 11
-26 -3 -12 0 -20 8 -20 12 0 30 -29 22 -36 -2 -2 -26 4 -53 13 -48 16 -48 17
-21 26 15 5 27 13 27 18 0 6 -4 8 -9 5 -4 -3 -17 1 -27 9 -10 8 -25 15 -33 15
-11 0 -11 -4 2 -18 10 -10 14 -22 10 -25 -6 -7 -55 27 -102 69 -32 30 -84 39
-113 20 -13 -9 -61 -17 -113 -21 -50 -4 -121 -13 -159 -20 -38 -8 -73 -12 -77
-10 -4 3 -10 -2 -13 -11 -3 -8 -10 -12 -16 -9 -6 4 -10 -39 -10 -124 0 -124 1
-131 25 -159 14 -17 41 -64 60 -106 31 -69 61 -103 97 -110 59 -12 118 -60
118 -95 0 -38 -25 -47 -53 -20 -18 17 -31 20 -74 17 -31 -3 -61 -12 -72 -22
-16 -15 -22 -16 -43 -4 -12 7 -26 17 -29 22 -4 5 -12 5 -18 2 -17 -11 -15
-343 2 -349 9 -4 9 -7 0 -18 -17 -17 -18 -159 -2 -159 8 0 8 -4 0 -13 -8 -10
-7 -17 1 -25 9 -9 9 -12 0 -12 -9 0 -12 -34 -12 -125 0 -104 2 -125 15 -125 8
0 15 -4 15 -10 0 -5 -7 -10 -15 -10 -13 0 -15 -63 -15 -504 l0 -504 72 19 c39
11 79 19 88 19 19 0 54 35 64 65 6 16 9 17 16 5 6 -8 10 -13 11 -10 0 3 2 13
4 22 2 13 -6 19 -31 24 -37 7 -41 13 -22 33 11 10 7 12 -17 9 -29 -3 -30 -1
-28 33 2 35 0 37 -37 43 -21 3 -42 11 -45 17 -12 18 27 49 83 65 34 10 50 19
42 24 -9 6 -9 9 0 15 6 4 16 3 22 -3 6 -6 17 -8 24 -5 8 3 14 -1 14 -11 0 -9
11 -21 25 -26 24 -9 55 -4 55 9 0 4 19 8 42 8 26 1 45 8 50 18 5 8 17 15 28
15 10 0 21 8 23 17 3 10 3 -6 1 -36 -3 -48 -2 -52 10 -35 17 22 32 13 20 -13
-4 -10 -8 -22 -9 -28 -1 -21 -16 -33 -33 -29 -9 2 -23 0 -31 -5 -19 -12 -3
-33 20 -26 11 4 19 2 19 -4 0 -6 -4 -11 -10 -11 -16 0 -12 -30 5 -36 23 -9 8
-23 -17 -16 -17 4 -20 2 -15 -12 5 -13 -1 -20 -23 -30 -29 -12 -30 -13 -13
-28 12 -10 29 -14 49 -11 26 4 30 8 26 29 -2 14 0 24 7 24 6 0 11 11 11 24 0
14 5 28 11 31 17 11 49 -26 49 -56 0 -26 -69 -182 -90 -203 -13 -13 -13 -83 0
-91 26 -16 4 -112 -43 -182 -29 -45 -51 -54 -61 -27 -3 9 -2 12 5 9 19 -12 39
17 39 56 0 38 -1 39 -37 39 -20 0 -112 -19 -205 -42 l-168 -43 0 -448 0 -447
2514 0 2514 0 18 25 c10 14 26 25 34 26 10 0 11 2 2 6 -6 2 -12 10 -12 18 0 7
-10 20 -22 28 l-23 16 25 -5 c23 -4 23 -4 -3 7 -15 6 -25 15 -21 20 3 5 10 7
15 3 5 -3 15 -1 22 4 7 6 31 16 55 23 59 17 139 -3 192 -48 22 -19 38 -39 34
-44 -3 -5 -2 -8 3 -7 15 4 112 -13 117 -20 3 -5 24 -9 48 -10 29 -2 49 -9 60
-22 16 -19 30 -20 422 -20 l406 0 0 2076 c0 1155 -4 2073 -9 2070 -4 -3 -11
-45 -14 -93 -5 -92 -13 -123 -29 -123 -11 0 -6 329 6 348 4 7 16 10 27 7 17
-6 19 -1 19 42 0 40 -4 50 -22 58 -19 8 -24 19 -26 64 -4 68 6 97 20 61 6 -14
14 -38 19 -55 5 -20 7 1 4 60 -4 96 -16 182 -28 202 -4 6 -2 15 4 19 6 3 15 0
20 -7 5 -8 9 94 9 246 l0 260 -32 15 c-36 18 -51 61 -17 53 11 -3 26 -15 34
-26 13 -19 15 45 15 551 l0 572 -420 0 -419 0 6 -85 c4 -54 2 -89 -5 -97 -7
-9 -7 -29 -1 -61 5 -31 5 -56 -1 -67 -7 -13 -6 -19 5 -23 10 -4 12 -16 9 -44
-9 -59 -34 -164 -50 -206 -17 -46 -18 -78 -1 -74 17 3 16 -45 -2 -51 -8 -3
-11 -1 -8 4 3 5 -8 10 -24 11 -25 2 -34 -6 -68 -55 -80 -118 -104 -131 -221
-127 -77 3 -125 8 -187 21 -13 2 -23 11 -23 19 0 18 95 173 208 341 45 66 82
129 82 139 0 10 7 23 16 29 10 8 16 27 16 51 0 39 10 56 41 68 23 9 22 24 -3
39 -23 15 -27 48 -5 48 22 0 18 25 -7 44 -16 12 -19 18 -10 22 6 3 12 13 12
21 0 11 -8 14 -30 11 -18 -3 -31 0 -34 9 -4 11 -114 13 -587 13 l-581 0 6 -42
c5 -37 4 -40 -5 -21 -7 13 -20 25 -30 28 -26 9 -24 23 4 28 12 2 -902 5 -2030
6 l-2053 1 0 -1290z m3870 1264 c0 -8 -4 -12 -10 -9 -5 3 -10 10 -10 16 0 5 5
9 10 9 6 0 10 -7 10 -16z m1398 -6 c17 -17 15 -29 -3 -22 -8 4 -22 1 -30 -6
-18 -15 -19 -7 -3 20 15 23 20 24 36 8z m12 -114 c0 -8 -4 -12 -10 -9 -5 3
-10 10 -10 16 0 5 5 9 10 9 6 0 10 -7 10 -16z m-1395 -54 c3 -5 1 -10 -4 -10
-6 0 -11 5 -11 10 0 6 2 10 4 10 3 0 8 -4 11 -10z m15 -30 c0 -5 -4 -10 -10
-10 -5 0 -10 5 -10 10 0 6 5 10 10 10 6 0 10 -4 10 -10z m14 -64 c17 6 41 -22
26 -31 -17 -10 -11 -43 10 -58 18 -13 19 -15 5 -21 -11 -4 -15 -15 -13 -33 2
-21 9 -29 28 -31 46 -5 57 -15 25 -21 -34 -7 -46 -37 -18 -44 10 -3 47 -7 83
-9 61 -3 65 -2 65 19 0 11 3 25 8 29 10 10 9 52 -2 58 -5 3 -7 22 -4 41 4 27
1 35 -11 35 -9 0 -16 5 -16 10 0 16 13 12 42 -13 19 -15 32 -40 42 -82 8 -33
22 -85 30 -115 27 -91 55 -317 55 -449 l1 -93 -48 -47 c-27 -25 -52 -54 -55
-63 -4 -10 -13 -18 -21 -18 -8 0 -17 -13 -21 -29 -8 -39 -32 -60 -41 -37 -3 9
-1 22 5 29 10 13 11 40 7 202 l-1 70 38 3 c45 4 50 22 5 22 -36 0 -66 14 -51
23 5 4 25 9 44 12 44 8 50 15 13 15 -55 0 -73 42 -26 62 27 11 26 12 -19 18
-32 4 -56 15 -78 35 -46 44 -41 55 27 56 31 1 68 4 82 8 l25 7 -27 7 c-29 8
-39 27 -14 27 16 0 31 18 23 26 -3 3 -23 0 -45 -6 -30 -10 -44 -10 -62 0 -29
15 -56 -5 -27 -21 9 -6 17 -14 17 -18 0 -14 -69 -46 -78 -36 -18 22 -41 124
-41 182 0 34 -2 66 -5 71 -3 5 -10 38 -16 74 -11 72 -3 171 12 144 5 -8 14
-13 22 -10z m1351 -17 c-10 -15 -25 -10 -19 6 4 8 10 12 15 9 5 -3 7 -10 4
-15z m-1222 -86 c-7 -2 -19 -2 -25 0 -7 3 -2 5 12 5 14 0 19 -2 13 -5z m1675
-198 c2 -16 9 -33 14 -36 6 -4 8 -14 5 -23 -5 -13 -11 -15 -27 -6 -28 15 -43
47 -35 77 8 35 39 27 43 -12z m248 5 c8 0 14 -7 14 -15 0 -18 -31 -20 -48 -3
-17 17 -15 31 4 24 9 -3 22 -6 30 -6z m224 -20 c0 -5 -4 -10 -9 -10 -6 0 -13
5 -16 10 -3 6 1 10 9 10 9 0 16 -4 16 -10z m-1187 -144 c-4 -6 -8 -6 -10 1 -5
14 -33 6 -33 -9 0 -5 5 -6 10 -3 6 3 10 -1 10 -11 0 -13 -3 -14 -15 -4 -18 15
-19 32 -4 47 14 14 51 -5 42 -21z m-188 -8 c14 -6 25 -16 25 -21 0 -5 9 -7 20
-4 11 3 20 1 20 -3 0 -5 16 -12 35 -16 39 -7 44 -18 16 -34 -20 -10 -51 -4
-51 10 0 5 -16 18 -35 30 -34 21 -37 21 -70 6 -60 -29 -110 -130 -79 -160 8
-8 14 -20 14 -26 0 -6 6 -8 13 -4 9 5 9 4 0 -6 -8 -9 -33 -10 -95 -6 -45 4
-103 8 -126 9 -45 3 -69 24 -58 52 6 18 -13 33 -52 41 -20 4 -29 11 -25 19 3
10 23 13 66 12 51 -1 74 4 131 31 37 17 74 32 81 32 7 0 26 6 42 14 26 13 79
33 95 35 4 1 19 -4 33 -11z m1224 -81 c20 -22 21 -57 1 -57 -14 0 -52 59 -45
70 9 15 19 12 44 -13z m-177 -44 c9 -18 13 -33 10 -33 -11 0 -52 44 -52 55 0
25 28 10 42 -22z m348 21 c0 -11 5 -14 16 -10 21 8 34 -1 27 -19 -8 -22 -30
-18 -47 7 -18 26 -20 38 -6 38 6 0 10 -7 10 -16z m-562 -42 c7 -5 15 -25 17
-45 4 -30 2 -37 -13 -37 -38 1 -66 42 -50 73 9 18 25 22 46 9z m-1229 -33 c-7
-4 -18 -5 -26 -2 -10 4 -11 9 -2 19 9 11 15 12 26 3 11 -9 11 -14 2 -20z m995
-40 c34 -27 35 -65 1 -71 -27 -6 -44 7 -23 15 7 3 3 6 -8 6 -20 1 -33 24 -34
59 0 19 34 14 64 -9z m-274 -42 c0 -33 -10 -40 -32 -21 -14 13 -15 20 -7 31
18 21 39 15 39 -10z m34 -2 c3 -8 1 -15 -4 -15 -6 0 -10 7 -10 15 0 8 2 15 4
15 2 0 6 -7 10 -15z m17 -45 c17 0 9 -19 -12 -31 -14 -7 -24 -8 -31 -1 -15 15
-1 45 18 38 9 -3 20 -6 25 -6z m-507 -21 c-8 -14 -24 -10 -24 6 0 9 6 12 15 9
8 -4 12 -10 9 -15z m298 -11 c-14 -14 2 -48 23 -48 9 0 15 -10 15 -25 0 -14 3
-25 8 -25 13 0 33 -53 23 -63 -6 -6 -1 -17 14 -29 13 -10 22 -25 19 -32 -3 -8
0 -17 5 -21 6 -3 9 -11 6 -16 -4 -5 1 -12 9 -15 9 -3 16 -14 16 -24 0 -11 4
-21 10 -25 5 -3 7 -12 3 -20 -4 -12 -10 -11 -29 7 -13 13 -24 30 -24 39 0 9
-9 28 -20 42 -11 14 -20 35 -20 47 0 15 -5 20 -15 17 -8 -4 -17 -2 -20 3 -4 6
-1 10 5 10 6 0 8 5 5 10 -3 6 -15 10 -26 10 -11 0 -28 14 -39 33 -23 37 -26
59 -7 56 23 -3 37 1 37 11 0 6 -18 10 -39 10 -45 0 -68 20 -24 21 15 0 22 3
15 6 -10 4 -7 9 10 18 31 17 56 19 40 3z m1011 -40 c9 -18 13 -35 11 -38 -8
-7 -44 39 -44 56 0 24 17 15 33 -18z m187 22 c0 -5 -2 -10 -4 -10 -3 0 -8 5
-11 10 -3 6 -1 10 4 10 6 0 11 -4 11 -10z m-382 -90 c27 -36 27 -46 2 -60 -24
-13 -60 3 -60 25 0 8 -4 15 -10 15 -14 0 -12 37 3 43 27 12 44 6 65 -23z
m-248 -50 c0 -6 9 -20 20 -32 10 -12 17 -25 13 -31 -3 -5 -15 2 -27 15 -11 13
-17 18 -12 11 10 -15 10 -15 -22 -18 -26 -3 -38 16 -28 42 6 15 8 15 16 3 8
-13 10 -12 10 3 0 9 7 17 15 17 8 0 15 -5 15 -10z m-861 -13 c6 -8 8 -17 4
-20 -7 -8 -33 11 -33 24 0 13 16 11 29 -4z m-2279 -11 c0 -3 -4 -8 -10 -11 -5
-3 -10 -1 -10 4 0 6 5 11 10 11 6 0 10 -2 10 -4z m-1 -61 c6 3 21 -3 33 -14
12 -12 25 -21 30 -21 4 0 8 -5 8 -10 0 -6 -9 -5 -21 2 -18 11 -23 10 -37 -10
-8 -13 -42 -49 -75 -80 -70 -67 -99 -119 -94 -166 2 -18 -2 -41 -9 -51 -14
-18 -10 -61 7 -79 5 -6 9 -22 9 -37 0 -15 6 -32 14 -38 7 -6 16 -25 20 -42 4
-23 10 -30 21 -25 20 7 32 -21 16 -37 -10 -9 -16 -8 -27 7 -8 11 -14 15 -14 9
0 -19 -49 -22 -55 -4 -3 11 -17 17 -44 17 -44 2 -71 22 -90 71 -11 27 -10 37
8 79 12 26 17 50 12 53 -10 7 -23 63 -23 100 0 28 72 105 122 128 23 12 43 32
58 63 15 29 34 50 54 59 17 8 33 23 36 34 5 19 6 19 18 2 7 -9 17 -14 23 -10z
m3904 -44 c21 -36 23 -81 3 -81 -19 0 -56 52 -56 77 0 42 29 44 53 4z m-3173
-56 c0 -17 32 -15 53 4 17 14 20 14 38 -9 23 -31 23 -34 3 -54 -21 -21 -54
-20 -70 2 -12 16 -13 16 -14 0 0 -31 -18 -28 -53 7 -30 30 -33 37 -22 49 17
17 65 18 65 1z m186 -34 c21 -11 42 -17 47 -14 4 2 15 -1 23 -8 19 -16 2 -29
-38 -29 -17 0 -31 -8 -38 -20 -12 -23 -35 -16 -25 7 3 10 -3 22 -15 30 -22 16
-27 53 -7 53 7 0 31 -9 53 -19z m1841 -16 c10 -22 9 -25 -7 -25 -23 0 -34 16
-26 35 8 22 19 18 33 -10z m747 -10 c-4 -8 -10 -15 -15 -15 -4 0 -6 7 -3 15 4
8 10 15 15 15 4 0 6 -7 3 -15z m-2646 -17 c-6 -18 -28 -21 -28 -4 0 9 7 16 16
16 9 0 14 -5 12 -12z m1502 -28 c0 -15 -13 -18 -35 -8 -13 6 -21 16 -18 24 4
10 10 10 29 2 13 -6 24 -14 24 -18z m-1605 10 c-3 -5 -11 -10 -16 -10 -6 0 -7
5 -4 10 3 6 11 10 16 10 6 0 7 -4 4 -10z m504 -26 c-9 -11 -9 -18 -1 -26 7 -7
12 -23 12 -36 0 -13 5 -32 10 -43 7 -13 8 -25 1 -37 -6 -9 -11 -12 -11 -5 0
19 -78 59 -152 78 -37 10 -69 24 -72 32 -4 9 -14 11 -31 7 -31 -8 -34 15 -6
40 19 17 20 17 31 -3 9 -18 14 -20 33 -9 12 6 53 14 92 16 38 2 76 7 85 12 19
11 26 -6 9 -26z m2546 -3 c42 -12 77 -28 87 -41 22 -27 23 -76 3 -84 -8 -3
-15 0 -15 7 0 7 -9 18 -20 25 -26 16 -25 10 5 -36 30 -46 44 -108 45 -194 0
-68 -14 -98 -46 -98 -12 0 -12 -4 -4 -20 9 -16 8 -20 -5 -20 -14 0 -19 11 -16
36 1 6 -5 17 -13 23 -12 10 -12 16 0 40 18 37 3 206 -20 230 -25 25 -35 2 -26
-59 5 -30 10 -87 12 -125 l3 -70 -37 4 c-21 1 -40 6 -43 10 -2 4 -5 51 -6 103
-1 53 -8 136 -16 184 -16 101 -13 119 20 110 12 -3 53 -15 92 -25z m-2850 -7
c-10 -7 -22 -11 -28 -7 -6 3 -3 11 8 19 10 7 22 11 28 7 6 -3 3 -11 -8 -19z
m785 12 c0 -8 -6 -16 -14 -19 -10 -4 -12 0 -9 14 6 22 23 26 23 5z m85 -6 c8
-13 -5 -13 -25 0 -13 8 -13 10 2 10 9 0 20 -4 23 -10z m53 -26 c3 -18 -1 -21
-23 -17 -14 3 -28 10 -32 16 -3 6 -1 7 5 3 7 -4 12 -1 12 9 0 24 34 14 38 -11z
m646 7 c3 -5 0 -13 -7 -19 -10 -8 -81 -35 -97 -37 -3 0 -10 -4 -17 -8 -7 -4
-24 -5 -38 -1 -19 5 -25 2 -25 -10 0 -11 -13 -18 -41 -22 -49 -8 -69 -26 -69
-62 0 -46 -14 -58 -39 -33 -11 11 -27 21 -34 21 -7 0 -18 10 -25 21 -11 17
-20 20 -48 16 -28 -5 -34 -3 -34 12 0 10 9 26 20 36 27 24 19 32 -32 30 -24
-1 -49 3 -55 8 -18 13 -16 37 3 37 8 0 12 -4 9 -10 -4 -6 9 -10 32 -10 22 0
44 -5 50 -11 7 -7 22 -8 46 -1 29 8 35 7 30 -3 -3 -9 9 -18 38 -25 35 -10 49
-9 83 5 117 49 159 59 184 46 17 -9 22 -8 27 9 7 20 29 27 39 11z m-1798 -255
c7 -34 19 -63 28 -68 9 -5 42 -30 74 -56 31 -26 81 -56 110 -66 48 -17 59 -17
114 -5 39 9 66 21 78 36 11 14 33 25 61 29 24 4 51 13 61 21 10 9 18 11 22 4
19 -30 1 -297 -20 -305 -8 -3 -11 -12 -8 -21 4 -8 1 -22 -6 -30 -7 -8 -9 -15
-5 -15 4 0 2 -7 -5 -15 -7 -9 -19 -14 -27 -11 -9 4 -13 -4 -13 -25 0 -19 -4
-28 -11 -24 -6 4 -8 13 -5 21 4 11 -1 13 -22 8 -15 -4 -31 -11 -36 -15 -6 -5
-20 -9 -33 -9 -20 0 -23 3 -17 28 7 24 6 26 -9 13 -22 -18 -42 -2 -51 40 -6
30 -108 139 -164 177 -35 23 -51 1 -23 -34 22 -28 29 -98 11 -109 -6 -3 -23 3
-39 14 -16 12 -42 21 -58 21 -15 0 -43 9 -61 20 -18 11 -37 20 -43 20 -13 0
-47 38 -59 67 -7 17 -19 23 -55 25 -52 3 -60 19 -15 31 16 4 30 12 30 17 0 5
-7 7 -16 3 -12 -4 -15 -2 -12 8 3 8 22 17 42 20 32 5 39 3 46 -15 7 -19 8 -19
15 9 4 17 9 37 12 45 4 8 5 21 4 28 -1 8 3 20 9 27 7 9 9 30 4 60 -6 40 -3 49
17 71 38 41 61 29 75 -40z m-572 -11 c-4 -8 -12 -15 -20 -15 -17 0 -18 17 -1
23 22 9 27 7 21 -8z m226 -25 c0 -11 -4 -20 -9 -20 -14 0 -23 18 -16 30 10 17
25 11 25 -10z m-200 -10 c0 -23 13 -26 29 -6 15 18 58 29 74 19 7 -4 22 -6 34
-5 32 5 41 -34 14 -62 -12 -12 -21 -34 -21 -48 0 -56 -82 -85 -150 -52 -35 17
-39 22 -34 47 2 15 1 33 -3 40 -10 17 -12 77 -1 77 4 0 8 -7 8 -15 0 -8 7 -15
15 -15 8 0 15 9 15 20 0 11 5 20 10 20 6 0 10 -9 10 -20z m2050 -2 c19 -13 62
-32 95 -43 66 -22 92 -55 81 -100 -10 -39 -37 -47 -85 -27 -41 17 -53 32 -26
32 8 0 15 5 15 11 0 6 -10 9 -22 8 -49 -6 -130 53 -112 82 3 6 -3 13 -15 16
-12 3 -21 13 -21 24 0 27 46 25 90 -3z m-1180 -27 c0 -12 -39 -25 -48 -16 -7
7 17 25 36 25 6 0 12 -4 12 -9z m-1069 -43 c16 -18 29 -38 29 -44 0 -6 10 -19
23 -27 18 -13 19 -16 5 -16 -9 -1 -20 4 -23 9 -9 15 -77 41 -91 36 -17 -6 -5
26 12 37 7 4 11 14 8 22 -10 24 5 17 37 -17z m107 -50 c-2 -6 -10 -14 -16 -16
-7 -2 -10 2 -6 12 7 18 28 22 22 4z m3677 -38 l25 -10 -2 -172 -3 -173 -30 0
-30 0 -5 175 c-4 116 -2 177 5 182 13 10 9 10 40 -2z m211 -27 c-10 -10 -19 5
-10 18 6 11 8 11 12 0 2 -7 1 -15 -2 -18z m-2093 -50 c53 -30 97 -59 97 -64 0
-5 6 -9 13 -9 17 0 19 -70 3 -76 -15 -6 -68 13 -77 28 -4 6 -22 12 -40 14 -88
9 -89 10 -110 50 -11 21 -18 47 -15 57 3 12 -5 24 -26 37 -19 11 -25 19 -16
23 28 10 76 -7 171 -60z m-4173 53 c0 -2 -9 -6 -20 -9 -11 -3 -18 -1 -14 4 5
9 34 13 34 5z m6192 -19 c9 -12 0 -348 -8 -357 -3 -2 -13 1 -22 6 -15 10 -18
35 -22 175 -3 90 -9 173 -14 183 -9 17 -6 19 24 12 19 -3 38 -12 42 -19z
m-3405 -43 c-3 -3 -12 -4 -19 -1 -8 3 -5 6 6 6 11 1 17 -2 13 -5z m-2537 -14
c0 -5 -5 -10 -11 -10 -5 0 -7 -4 -4 -10 3 -5 1 -10 -4 -10 -13 0 -13 3 -5 24
7 18 24 22 24 6z m48 -22 c-7 -19 -38 -22 -38 -4 0 10 9 16 21 16 12 0 19 -5
17 -12z m-348 -12 c0 -3 -4 -8 -10 -11 -5 -3 -10 -1 -10 4 0 6 5 11 10 11 6 0
10 -2 10 -4z m230 -26 c0 -5 -2 -10 -4 -10 -3 0 -8 5 -11 10 -3 6 -1 10 4 10
6 0 11 -4 11 -10z m110 -33 c0 -20 -1 -20 -16 -5 -9 9 -13 21 -9 27 10 16 25
3 25 -22z m4158 -32 c29 -15 72 -70 72 -93 0 -17 -29 -22 -55 -10 -14 6 -25
17 -25 24 0 19 -19 27 -34 14 -11 -8 -17 -4 -29 20 -15 29 -15 31 11 45 15 8
27 14 28 15 0 0 15 -7 32 -15z m-1330 -104 l-2 -29 -38 26 c-42 27 -44 31 -25
54 31 40 70 11 65 -51z m472 54 c0 -18 -20 -57 -35 -67 -20 -15 -27 -7 -21 25
8 43 56 79 56 42z m523 -25 c5 -4 4 -17 -3 -29 -6 -12 -8 -26 -5 -31 8 -14 93
-25 216 -29 30 -1 90 -56 83 -76 -7 -17 -45 -27 -60 -14 -6 5 -20 8 -30 8 -37
-4 -54 1 -54 15 0 41 -62 44 -100 4 -16 -18 -24 -20 -44 -10 -17 7 -27 7 -35
-1 -11 -11 -35 3 -37 23 -1 6 -2 15 -3 21 0 5 -5 8 -10 5 -5 -4 -17 -3 -26 0
-13 5 -14 9 -3 15 11 8 11 11 -1 18 -19 12 -4 33 19 26 23 -7 35 11 20 30 -9
11 -9 15 -1 15 6 0 11 7 11 15 0 12 7 14 28 9 15 -4 31 -10 35 -14z m-4183
-30 c0 -5 -4 -10 -10 -10 -5 0 -10 5 -10 10 0 6 5 10 10 10 6 0 10 -4 10 -10z
m4545 -39 c10 -17 -12 -21 -25 -6 -10 12 -10 15 3 15 9 0 18 -4 22 -9z m-4506
-50 c29 -18 -8 -32 -61 -22 -15 2 -8 20 10 24 28 8 36 7 51 -2z m2606 -11 c4
-7 12 -7 25 0 25 13 73 13 87 -1 8 -8 16 -7 30 1 15 10 25 9 49 -3 16 -8 42
-13 57 -10 21 4 35 -1 55 -19 26 -23 56 -39 95 -52 19 -6 21 -23 7 -61 -9 -24
-13 -25 -47 -19 -21 4 -45 13 -54 20 -8 8 -22 14 -30 14 -8 0 -23 6 -34 13
-11 8 -37 14 -58 14 -21 1 -46 8 -56 17 -10 9 -32 16 -49 16 -20 0 -39 8 -49
20 -11 12 -24 18 -38 14 -18 -4 -21 -1 -19 18 3 29 2 28 13 28 6 0 13 -5 16
-10z m-2555 -25 c0 -8 5 -15 10 -15 6 0 10 -6 10 -12 0 -11 -25 -14 -71 -9
-12 1 31 51 44 51 4 0 7 -7 7 -15z m497 -97 c-3 -8 -6 -5 -6 6 -1 11 2 17 5
13 3 -3 4 -12 1 -19z m1153 14 c0 -4 -11 -23 -24 -43 -13 -19 -43 -71 -65
-115 -34 -65 -41 -89 -41 -135 l0 -56 -42 1 -43 1 3 -35 c2 -19 8 -40 14 -47
5 -7 8 -18 6 -25 -3 -7 -17 12 -32 42 -29 57 -41 163 -21 178 6 4 23 27 40 51
16 24 35 45 42 48 7 3 13 14 13 24 0 10 4 19 8 19 4 0 32 23 61 50 48 45 81
62 81 42z m1110 -82 c19 -1 49 -7 65 -14 20 -8 40 -10 59 -5 17 5 32 5 35 1 4
-4 30 -7 59 -7 41 0 57 -4 68 -19 8 -11 10 -24 5 -30 -14 -19 -34 -105 -27
-122 4 -9 12 -14 21 -10 8 3 15 2 15 -3 0 -5 -10 -11 -22 -15 -18 -4 -20 -8
-10 -18 19 -19 14 -41 -18 -71 -16 -16 -30 -34 -30 -41 0 -12 -86 -46 -116
-46 -8 0 -14 -7 -14 -15 0 -10 -9 -14 -27 -14 -36 2 -83 19 -83 30 0 5 -10 9
-23 9 -13 0 -32 6 -42 14 -19 14 -19 15 -1 35 13 14 31 21 55 21 38 0 129 40
172 75 13 11 33 34 43 50 10 17 13 24 5 18 -7 -7 -22 -13 -32 -13 -15 0 -18 5
-14 21 3 13 1 19 -6 16 -7 -3 -11 -10 -9 -16 1 -7 -10 -3 -26 9 -24 18 -64 29
-161 44 -14 2 -33 14 -43 26 -10 12 -24 20 -32 17 -8 -3 -16 2 -19 14 -4 13 0
19 13 19 24 0 45 26 29 35 -21 13 12 23 45 14 17 -5 47 -9 66 -9z m1097 4 c8
-21 -15 -70 -28 -57 -11 11 -1 73 13 73 5 0 11 -7 15 -16z m-400 -95 c15 -5
45 -28 65 -50 21 -21 41 -39 46 -39 4 0 15 -12 24 -27 16 -26 17 -27 18 -6 0
16 4 21 15 17 8 -4 15 -2 15 4 0 6 -4 12 -10 14 -14 5 2 24 27 32 16 5 28 1
43 -14 22 -22 22 -31 8 -142 -5 -42 -48 -4 -48 41 0 23 -25 29 -33 9 -4 -10
-7 -10 -18 -1 -15 14 -39 0 -39 -23 0 -8 -4 -14 -10 -14 -5 0 -10 -14 -10 -31
0 -17 -4 -28 -10 -24 -6 3 -7 -1 -4 -9 3 -9 10 -16 14 -16 4 0 11 -17 14 -37
4 -21 9 -46 12 -55 4 -14 0 -16 -31 -11 -27 4 -35 3 -33 -8 2 -8 -4 -14 -12
-14 -8 0 -17 11 -18 25 -2 13 -11 29 -19 35 -16 12 -18 56 -7 156 6 55 6 57
-23 69 -28 13 -30 17 -30 72 0 62 4 66 54 47z m-2893 -34 c3 -9 0 -15 -9 -15
-16 0 -27 14 -18 24 10 10 21 7 27 -9z m-239 -25 c13 -14 21 -17 25 -9 5 6 12
-1 18 -19 13 -38 10 -40 -35 -35 -41 4 -80 27 -64 38 8 4 8 12 1 26 -9 16 -7
19 13 19 13 0 32 -9 42 -20z m333 -12 c-2 -13 -7 -23 -13 -23 -5 0 -11 10 -13
23 -2 15 2 22 13 22 11 0 15 -7 13 -22z m-96 -80 c6 -68 2 -86 -15 -69 -6 6
-16 7 -26 1 -19 -10 -138 -120 -131 -120 3 0 38 7 79 15 48 10 78 12 84 6 15
-15 -1 -99 -22 -111 -10 -5 -38 -12 -62 -16 -24 -3 -67 -13 -95 -20 -38 -11
-63 -12 -95 -5 -24 5 -77 13 -116 17 -40 3 -73 11 -73 16 0 5 -6 8 -12 6 -7
-1 -31 9 -53 23 -33 22 -43 36 -59 85 -34 108 -35 114 -25 114 5 0 9 -7 9 -15
0 -9 7 -18 15 -21 8 -4 15 -14 15 -25 0 -20 66 -89 86 -89 8 0 11 -6 8 -14 -4
-10 1 -15 18 -15 12 0 33 -1 45 -1 12 0 25 -5 28 -10 8 -13 72 -13 80 0 9 14
45 -7 45 -25 0 -8 5 -15 10 -15 6 0 10 7 10 15 0 8 -4 15 -10 15 -5 0 -10 5
-10 11 0 6 14 9 33 7 23 -2 32 1 32 12 0 8 4 18 9 21 4 4 -13 10 -38 13 -30 5
-46 12 -46 21 0 8 -9 19 -20 25 -42 23 -21 64 50 96 24 11 24 12 -23 25 -52
14 -56 28 -13 42 22 7 32 5 50 -12 29 -27 56 -27 56 -1 0 11 2 20 5 20 14 0
85 -41 85 -50 0 -10 67 -7 78 4 3 4 1 11 -6 15 -8 5 -10 19 -6 39 10 50 21 38
26 -30z m-634 11 c9 -35 8 -40 -6 -37 -12 2 -18 15 -20 41 -4 49 13 47 26 -4z
m3692 -60 c0 -5 -4 -9 -10 -9 -5 0 -10 7 -10 16 0 8 5 12 10 9 6 -3 10 -10 10
-16z m-322 -12 c20 -13 50 -28 67 -34 44 -14 55 -61 27 -119 -34 -70 -47 -59
-58 52 -7 65 -7 65 -50 84 -24 11 -48 20 -53 20 -6 0 -11 5 -11 10 0 18 39 11
78 -13z m327 -27 c3 -5 1 -10 -4 -10 -6 0 -11 5 -11 10 0 6 2 10 4 10 3 0 8
-4 11 -10z m-2135 -60 c0 -5 -4 -10 -10 -10 -5 0 -10 5 -10 10 0 6 5 10 10 10
6 0 10 -4 10 -10z m39 -102 c4 -45 9 -87 11 -93 2 -5 0 -18 -5 -28 -4 -10 -2
-23 5 -32 10 -12 9 -16 -3 -21 -8 -3 -21 -19 -28 -36 -11 -28 -10 -32 12 -49
24 -18 24 -19 2 -19 -12 0 -34 11 -49 24 -31 26 -31 28 12 200 13 53 14 73 5
87 -15 25 -14 29 5 29 11 0 14 6 9 23 -6 17 -5 19 5 10 7 -6 15 -49 19 -95z
m-894 52 c4 -6 1 -18 -6 -26 -10 -12 -9 -16 9 -20 13 -4 19 -11 15 -20 -3 -8
3 -21 13 -29 18 -13 17 -15 -16 -45 l-35 -31 33 5 c31 5 32 5 21 -17 -7 -12
-17 -25 -23 -29 -8 -6 -8 -8 0 -8 6 0 10 -22 10 -55 -1 -30 -5 -55 -9 -55 -5
0 -7 -12 -6 -27 4 -58 0 -68 -36 -79 -32 -10 -35 -9 -30 6 4 14 -3 19 -35 24
-22 3 -40 11 -40 17 0 5 -8 9 -17 7 -13 -2 -17 3 -15 16 3 14 -1 18 -16 14
-14 -4 -22 0 -25 13 -3 11 -14 19 -24 19 -32 0 -89 55 -88 86 0 22 7 29 35 39
22 8 34 18 34 29 -1 10 8 18 25 22 112 25 160 55 186 118 15 36 28 45 40 26z
m2273 -115 c1 -17 9 -52 17 -80 7 -27 19 -72 26 -100 7 -27 18 -63 26 -78 17
-34 11 -57 -16 -57 -41 0 -66 -60 -41 -100 9 -15 14 -14 99 18 8 3 12 0 9 -9
-2 -7 -24 -18 -49 -24 -29 -7 -45 -17 -47 -29 -4 -17 1 -18 34 -13 22 3 47 8
58 13 14 5 18 3 14 -7 -2 -8 -26 -24 -51 -36 -51 -25 -58 -38 -26 -48 19 -6
19 -8 4 -25 -10 -11 -15 -30 -13 -47 4 -36 33 -41 89 -14 53 26 59 26 59 1 0
-16 -5 -19 -23 -15 -28 7 -50 -15 -41 -39 7 -19 25 -21 42 -4 7 7 12 8 12 4 0
-15 -34 -35 -58 -36 -19 0 -21 4 -16 25 4 18 2 25 -8 25 -33 0 -49 -47 -29
-79 6 -9 25 -15 47 -15 29 0 42 6 60 30 20 24 26 27 34 14 14 -21 12 -41 -2
-38 -16 3 -120 -49 -130 -65 -4 -7 -8 -18 -8 -24 0 -19 110 -17 137 2 20 14
23 14 34 -6 21 -41 92 -356 123 -554 9 -55 23 -136 31 -180 25 -144 26 -145
11 -145 -8 0 -17 -12 -20 -26 -5 -17 -12 -24 -21 -20 -18 6 -19 1 -4 -25 7
-15 7 -24 -1 -34 -9 -11 -6 -16 16 -21 15 -4 35 -2 45 4 15 10 20 8 27 -6 16
-29 22 -99 13 -125 -8 -19 -5 -29 9 -45 19 -20 19 -21 -19 -51 -21 -17 -47
-31 -58 -31 -23 0 -46 -35 -38 -59 3 -10 52 -42 110 -72 58 -30 124 -64 147
-76 59 -30 75 -49 80 -91 6 -52 0 -75 -17 -59 -7 7 -16 23 -19 35 -4 12 -12
19 -18 16 -6 -4 -21 6 -34 21 -23 27 -50 26 -40 -2 4 -9 1 -13 -6 -10 -7 2
-12 10 -10 16 1 6 -7 11 -18 11 -11 0 -23 7 -26 15 -4 8 -11 12 -17 8 -17 -10
-67 -14 -67 -5 0 10 -62 38 -105 48 -16 4 -33 12 -37 18 -6 8 -10 7 -16 -2 -7
-10 -15 -9 -40 5 -26 15 -35 16 -52 5 -11 -7 -20 -8 -20 -3 0 12 -76 25 -91
15 -20 -12 -140 -9 -148 4 -5 8 -17 7 -46 -2 -22 -8 -47 -11 -55 -6 -8 4 -28
1 -45 -6 -21 -8 -25 -14 -15 -17 26 -8 122 -25 205 -36 212 -28 219 -30 320
-80 114 -56 190 -81 255 -82 63 -1 83 -8 76 -26 -4 -11 -1 -13 14 -8 16 5 19
3 13 -10 -3 -10 -2 -20 3 -24 12 -8 54 -86 54 -100 0 -16 -30 -13 -36 4 -4 8
-13 15 -22 15 -30 0 -102 33 -102 46 0 8 -9 13 -22 11 -17 -1 -22 3 -20 16 3
19 -23 24 -33 7 -9 -14 -35 7 -35 26 0 17 -26 18 -34 2 -3 -7 -4 -4 -1 7 4 16
-1 20 -27 22 -34 3 -68 28 -68 50 0 10 -7 12 -22 8 -16 -4 -19 -4 -9 3 10 7 5
12 -21 21 -19 6 -42 9 -50 6 -9 -4 -19 -2 -22 3 -6 10 -53 4 -61 -8 -6 -9
-135 -2 -149 8 -6 5 -27 9 -46 11 -22 1 -43 11 -58 27 -19 22 -23 23 -29 8 -6
-16 -7 -16 -19 1 -9 12 -21 16 -36 12 -12 -4 -27 -2 -32 2 -17 13 -76 22 -76
11 0 -6 4 -10 10 -10 5 0 7 -7 3 -16 -4 -12 -18 -15 -57 -13 -29 1 -58 -1 -65
-6 -22 -13 -61 41 -54 75 4 25 1 29 -31 41 -22 8 -36 20 -38 33 -2 12 -14 23
-28 27 -16 4 -19 7 -7 8 19 1 24 31 4 31 -7 0 -19 16 -26 36 -7 19 -19 38 -26
41 -8 2 -24 25 -36 50 -18 37 -20 49 -10 69 8 19 8 31 0 46 -7 13 -8 37 -4 62
4 23 7 51 7 64 0 12 5 22 10 22 6 0 7 7 4 16 -6 17 19 74 33 74 8 0 23 38 25
65 1 6 7 20 14 33 10 17 17 20 25 13 9 -7 25 3 55 34 24 24 49 42 56 39 8 -3
16 4 19 16 4 15 12 20 24 18 10 -3 42 4 72 15 32 12 68 17 90 15 20 -3 60 -2
89 2 43 5 55 3 68 -11 9 -10 29 -21 45 -24 16 -4 29 -11 29 -16 0 -22 129 -82
149 -70 5 4 11 32 13 64 3 55 23 78 23 27 0 -14 5 -32 10 -40 5 -8 10 -22 10
-30 0 -12 12 -15 55 -14 30 1 41 -1 24 -3 -18 -2 -40 -13 -49 -23 -16 -18 -16
-20 -1 -26 9 -3 31 -3 49 0 17 4 47 9 65 13 30 5 67 43 43 43 -6 0 -8 12 -5
29 8 39 -7 45 -67 26 -49 -17 -76 -12 -61 11 4 6 31 17 61 25 55 14 67 24 53
46 -5 8 -21 8 -60 1 -40 -8 -56 -8 -61 0 -4 7 -27 11 -54 10 -54 -3 -63 3 -47
32 8 15 17 19 31 15 23 -8 154 32 170 51 14 17 3 35 -16 27 -20 -7 -19 14 0
34 12 12 13 18 4 29 -10 12 -17 10 -45 -11 -33 -25 -58 -30 -89 -19 -13 5 -14
8 -3 15 7 5 23 9 35 9 32 0 93 31 93 47 0 8 -12 13 -30 13 -28 0 -30 2 -20 20
6 11 17 20 25 20 17 0 20 16 5 25 -6 3 -7 17 -4 30 3 12 1 26 -5 29 -6 4 -11
20 -11 37 0 21 -5 29 -17 30 -11 0 -13 3 -5 6 17 7 15 43 -3 43 -17 0 -20 16
-5 25 6 3 10 13 10 20 0 11 -5 12 -22 5 -13 -5 -39 -11 -59 -15 -50 -8 -64
-27 -52 -68 10 -34 20 -37 80 -23 48 11 34 -15 -22 -42 -76 -37 -56 -68 40
-64 70 3 60 -11 -20 -28 -37 -8 -53 -17 -61 -34 -11 -23 -10 -24 27 -19 26 4
39 2 39 -6 0 -6 -4 -12 -10 -12 -14 -2 -22 -5 -43 -14 -16 -7 -17 -9 -2 -25
15 -17 15 -19 -2 -29 -11 -7 -14 -14 -8 -18 6 -5 15 -18 22 -30 10 -17 9 -24
-3 -34 -23 -19 -37 3 -40 66 -2 31 -10 88 -18 128 -9 40 -17 88 -20 107 -2 19
-7 42 -10 50 -4 8 -8 42 -10 75 -4 68 -42 312 -56 365 -6 19 -10 56 -10 82 0
26 -6 67 -14 90 -8 24 -17 63 -20 88 -4 24 -11 49 -15 55 -5 5 -14 27 -20 47
-7 20 -23 53 -37 73 -22 33 -23 38 -10 63 16 32 40 53 81 75 42 23 59 17 63
-18z m-2101 -47 c40 -18 62 -48 62 -83 0 -25 -2 -27 -9 -10 -4 11 -20 31 -34
44 -23 21 -29 23 -52 13 -39 -18 -61 7 -32 36 15 15 30 15 65 0z m3050 -10
c-3 -8 -6 -5 -6 6 -1 11 2 17 5 13 3 -3 4 -12 1 -19z m-3619 -153 c34 -43 29
-57 -15 -49 -21 3 -48 12 -60 20 -12 8 -32 14 -45 14 -13 1 -66 4 -118 8 l-95
7 40 18 c22 10 47 22 56 26 8 5 23 5 32 0 15 -9 120 11 134 24 5 6 39 -27 71
-68z m2406 29 c-15 -22 -15 -27 -4 -34 17 -10 43 8 36 25 -2 6 2 12 9 12 16 0
3 -40 -19 -63 -13 -12 -17 -11 -30 7 -8 12 -26 22 -40 23 -14 0 -26 3 -26 5 0
13 49 51 68 51 22 0 22 -1 6 -26z m1254 -3 c3 -8 -1 -12 -9 -9 -7 2 -15 10
-17 17 -3 8 1 12 9 9 7 -2 15 -10 17 -17z m-3118 -36 c6 -19 17 -35 25 -35 7
0 15 -9 18 -20 7 -27 23 -25 31 3 l7 22 11 -22 c8 -16 6 -51 -6 -135 -23 -148
-60 -228 -106 -228 -29 0 -32 29 -15 141 18 122 19 175 4 234 -18 72 9 107 31
40z m100 4 c0 -17 -4 -28 -10 -24 -5 3 -10 17 -10 31 0 13 5 24 10 24 6 0 10
-14 10 -31z m574 -19 c-10 -16 -20 -27 -23 -25 -6 7 21 55 31 55 5 0 1 -13 -8
-30z m-1034 4 c0 -8 -5 -12 -10 -9 -6 4 -8 11 -5 16 9 14 15 11 15 -7z m1260
-68 c-1 -21 -1 -21 -15 -2 -21 27 -20 53 0 36 8 -7 15 -22 15 -34z m958 9 c-3
-3 -9 2 -12 12 -6 14 -5 15 5 6 7 -7 10 -15 7 -18z m-2540 -23 c5 -17 -27 -27
-41 -13 -9 9 -8 14 3 21 18 11 32 8 38 -8z m422 14 c0 -3 -4 -8 -10 -11 -5 -3
-10 -1 -10 4 0 6 5 11 10 11 6 0 10 -2 10 -4z m-390 -36 c0 -11 -4 -20 -10
-20 -5 0 -10 9 -10 20 0 11 5 20 10 20 6 0 10 -9 10 -20z m2510 -13 c0 -18 -2
-19 -10 -7 -13 20 -13 43 0 35 6 -3 10 -16 10 -28z m-2641 -82 c10 -10 -23
-25 -56 -25 -31 0 -44 16 -27 33 8 7 74 1 83 -8z m3071 -94 c15 -29 13 -71 -4
-71 -8 0 -16 7 -20 15 -3 8 -18 20 -33 26 l-27 10 30 19 c37 24 41 24 54 1z
m-2800 -46 c0 -20 28 -65 56 -90 22 -19 22 -22 10 -94 -8 -45 -10 -87 -5 -109
8 -39 0 -52 -33 -52 -10 0 -18 -6 -18 -13 0 -16 -38 -40 -51 -31 -5 3 -20 0
-32 -8 -26 -16 -103 -16 -120 1 -6 6 -14 11 -19 11 -4 0 -18 11 -32 25 -14 14
-31 25 -38 25 -8 0 -14 8 -14 18 0 9 -4 27 -8 40 -6 18 -4 22 13 22 11 0 33
11 49 25 17 14 36 25 44 25 8 0 23 9 33 20 14 16 16 26 9 52 -9 30 -14 34 -66
43 -64 11 -76 19 -60 38 7 8 8 17 4 22 -4 4 6 5 22 1 18 -5 32 -3 36 5 10 16
103 37 168 38 40 1 52 -2 52 -14z m2870 -230 c0 -26 -14 -33 -25 -15 -9 14 1
40 15 40 5 0 10 -11 10 -25z m-3180 -64 c0 -11 -4 -22 -8 -25 -14 -9 -52 6
-52 19 0 12 9 16 53 24 4 0 7 -8 7 -18z m1960 -26 c0 -8 -4 -15 -10 -15 -5 0
-10 7 -10 15 0 8 5 15 10 15 6 0 10 -7 10 -15z m-571 -73 c1 -7 -3 -10 -9 -7
-5 3 -10 21 -9 38 1 31 1 31 9 7 4 -14 8 -31 9 -38z m7 -98 c-3 -8 -10 -12
-16 -9 -14 9 -12 42 3 48 14 5 21 -17 13 -39z m4 -49 c0 -14 13 -52 29 -84 28
-55 29 -62 26 -172 -5 -207 23 -285 151 -428 48 -53 52 -61 30 -61 -30 0 -121
90 -141 140 -4 8 -11 23 -16 32 -5 10 -9 26 -9 36 0 10 -4 22 -9 28 -16 17
-30 99 -32 188 -1 71 -7 99 -25 135 -22 45 -41 190 -27 205 13 13 23 5 23 -19z
m-932 -240 c-3 -3 -9 2 -12 12 -6 14 -5 15 5 6 7 -7 10 -15 7 -18z m-58 -60
c0 -8 -4 -15 -10 -15 -5 0 -10 7 -10 15 0 8 5 15 10 15 6 0 10 -7 10 -15z
m-40 -70 c-7 -9 -15 -13 -17 -11 -7 7 7 26 19 26 6 0 6 -6 -2 -15z m47 -37
c-3 -8 -6 -5 -6 6 -1 11 2 17 5 13 3 -3 4 -12 1 -19z m-134 -718 c-3 -11 -9
-20 -13 -20 -5 0 -6 9 -3 20 3 11 9 20 13 20 5 0 6 -9 3 -20z m-23 -101 c0 -5
-4 -9 -10 -9 -5 0 -10 7 -10 16 0 8 5 12 10 9 6 -3 10 -10 10 -16z m40 -329
c0 -13 -7 -20 -20 -20 -11 0 -20 2 -20 4 0 2 -3 11 -6 20 -5 12 0 16 20 16 19
0 26 -5 26 -20z m178 -26 c13 -20 21 -38 18 -42 -10 -9 -56 40 -56 60 0 27 13
22 38 -18z m2563 -14 c20 0 29 -5 29 -16 0 -14 -7 -15 -37 -9 -21 4 -59 7 -85
7 -27 0 -48 4 -48 8 0 15 24 20 69 15 24 -3 57 -5 72 -5z m181 -14 c80 -16
113 -27 143 -51 17 -13 18 -17 5 -25 -16 -10 -68 -2 -87 12 -7 5 -17 7 -23 3
-5 -3 -14 5 -19 18 -8 20 -19 26 -60 32 -28 4 -53 11 -57 16 -7 12 12 11 98
-5z m-3112 -21 c19 -23 1 -39 -21 -19 -10 9 -16 21 -13 25 8 13 20 11 34 -6z
m2465 -5 c3 -5 1 -10 -4 -10 -6 0 -11 5 -11 10 0 6 2 10 4 10 3 0 8 -4 11 -10z
m35 -10 c0 -5 -4 -10 -10 -10 -5 0 -10 5 -10 10 0 6 5 10 10 10 6 0 10 -4 10
-10z m824 -38 c2 -4 -6 -9 -20 -10 -13 -1 -24 3 -24 8 0 12 37 14 44 2z m73
-56 c-4 -9 -11 -16 -17 -16 -11 0 -14 33 -3 43 11 11 26 -10 20 -27z m48 4
c11 18 25 1 25 -31 0 -29 -1 -29 -19 -12 -10 10 -24 29 -30 43 -11 23 -11 23
2 7 10 -12 17 -14 22 -7z m-3150 -99 c10 -34 2 -82 -14 -79 -15 3 -42 76 -34
91 8 14 42 7 48 -12z m209 4 c24 -25 30 -56 12 -73 -14 -14 -16 -13 -26 12 -5
15 -10 31 -10 36 0 4 -7 11 -16 14 -17 7 -10 26 11 26 7 0 20 -7 29 -15z
m2249 -22 c11 -10 -13 -32 -29 -26 -20 8 -17 33 4 33 10 0 22 -3 25 -7z m94
-33 c-1 -20 -17 -27 -30 -13 -8 7 11 33 24 33 4 0 7 -9 6 -20z m278 -13 c44
-9 98 -21 120 -28 48 -13 115 -49 115 -61 0 -5 -9 -4 -21 2 -13 8 -24 8 -32 2
-7 -6 -28 -9 -47 -7 -19 2 -38 4 -42 4 -4 1 -10 10 -13 21 -4 12 -14 20 -23
18 -9 -1 -27 3 -39 10 -13 7 -33 10 -47 6 -32 -8 -136 25 -136 44 0 16 39 14
165 -11z m-3077 -65 c5 -17 -13 -15 -27 2 -10 12 -9 14 5 12 10 -2 20 -8 22
-14z"/>
<path d="M4040 5833 c-60 -4 -95 -23 -43 -23 46 0 60 -26 17 -33 -28 -4 -28
-22 1 -21 88 2 115 5 115 14 0 6 -11 10 -25 10 -34 0 -31 18 5 34 30 12 31 28
1 24 -9 -1 -41 -3 -71 -5z"/>
<path d="M5630 5466 c0 -14 5 -26 10 -26 6 0 10 9 10 19 0 11 -4 23 -10 26 -6
4 -10 -5 -10 -19z"/>
<path d="M2200 4640 c0 -5 5 -10 11 -10 5 0 7 5 4 10 -3 6 -8 10 -11 10 -2 0
-4 -4 -4 -10z"/>
<path d="M2220 4520 c0 -5 5 -10 10 -10 6 0 10 5 10 10 0 6 -4 10 -10 10 -5 0
-10 -4 -10 -10z"/>
<path d="M4736 4365 c4 -8 12 -15 20 -15 19 0 18 16 -2 24 -22 9 -24 8 -18 -9z"/>
<path d="M180 3260 c0 -5 5 -10 10 -10 6 0 10 5 10 10 0 6 -4 10 -10 10 -5 0
-10 -4 -10 -10z"/>
<path d="M510 3260 c0 -5 5 -10 11 -10 5 0 7 5 4 10 -3 6 -8 10 -11 10 -2 0
-4 -4 -4 -10z"/>
<path d="M275 3210 c3 -5 10 -10 16 -10 5 0 9 5 9 10 0 6 -7 10 -16 10 -8 0
-12 -4 -9 -10z"/>
<path d="M748 2953 c7 -3 16 -2 19 1 4 3 -2 6 -13 5 -11 0 -14 -3 -6 -6z"/>
<path d="M3465 1260 c-3 -5 -1 -10 4 -10 6 0 11 5 11 10 0 6 -2 10 -4 10 -3 0
-8 -4 -11 -10z"/>
<path d="M2696 870 c7 -7 19 -7 35 -1 23 9 22 10 -10 10 -24 1 -32 -2 -25 -9z"/>
<path d="M3570 810 c0 -5 5 -10 10 -10 6 0 10 5 10 10 0 6 -4 10 -10 10 -5 0
-10 -4 -10 -10z"/>
<path d="M5384 6385 c-16 -13 -17 -16 -4 -25 12 -8 13 -13 3 -30 -7 -11 -13
-29 -13 -39 0 -11 -4 -23 -10 -26 -17 -10 -11 -25 10 -25 13 0 18 5 14 15 -4
10 0 15 14 15 14 0 27 16 47 58 16 31 30 60 32 65 8 13 -73 7 -93 -8z"/>
<path d="M5360 5966 c0 -2 7 -7 16 -10 8 -3 12 -2 9 4 -6 10 -25 14 -25 6z"/>
<path d="M5300 5900 c0 -5 7 -7 15 -4 8 4 15 8 15 10 0 2 -7 4 -15 4 -8 0 -15
-4 -15 -10z"/>
<path d="M5430 5900 c0 -5 4 -10 9 -10 6 0 13 5 16 10 3 6 -1 10 -9 10 -9 0
-16 -4 -16 -10z"/>
<path d="M5349 5844 c-12 -14 -11 -16 5 -13 11 2 21 10 24 17 5 17 -13 15 -29
-4z"/>
<path d="M5260 5800 c0 -6 7 -10 15 -10 8 0 15 2 15 4 0 2 -7 6 -15 10 -8 3
-15 1 -15 -4z"/>
<path d="M5335 5749 c-4 -6 -5 -13 -2 -16 7 -7 27 6 27 18 0 12 -17 12 -25 -2z"/>
<path d="M5257 5714 c-4 -4 -7 -14 -7 -23 0 -11 3 -12 11 -4 6 6 10 16 7 23
-2 6 -7 8 -11 4z"/>
<path d="M5190 5625 c14 -16 40 -20 40 -6 0 9 -24 21 -42 21 -6 0 -6 -6 2 -15z"/>
<path d="M5090 5580 c-12 -8 -11 -10 8 -10 12 0 22 5 22 10 0 13 -11 13 -30 0z"/>
<path d="M6391 4174 c0 -11 3 -14 6 -6 3 7 2 16 -1 19 -3 4 -6 -2 -5 -13z"/>
<path d="M376 1374 c-11 -8 -16 -14 -10 -14 13 0 39 18 34 24 -3 2 -14 -2 -24
-10z"/>
<path d="M382 1223 c-15 -3 -22 -11 -20 -21 3 -23 -10 -42 -28 -42 -8 0 -13 4
-10 9 8 13 -3 38 -20 45 -19 7 -45 -4 -37 -17 3 -6 1 -7 -6 -3 -15 10 -61 -1
-61 -14 0 -6 11 -10 24 -10 50 0 58 -10 27 -36 -16 -13 -37 -24 -47 -25 -14 0
-11 -3 8 -10 22 -9 33 -6 65 15 21 14 42 26 48 26 16 0 37 -64 28 -85 -11 -31
15 -7 31 28 31 67 55 135 49 141 -7 6 -13 6 -51 -1z"/>
<path d="M95 1179 c-10 -15 3 -25 16 -12 7 7 7 13 1 17 -6 3 -14 1 -17 -5z"/>
<path d="M158 1174 c-5 -4 -8 -19 -8 -33 0 -18 3 -22 11 -14 6 6 9 21 7 33 -1
12 -6 18 -10 14z"/>
<path d="M86 1104 c-4 -9 -4 -19 -2 -21 8 -8 26 8 26 23 0 19 -16 18 -24 -2z"/>
<path d="M1 1074 c0 -11 3 -14 6 -6 3 7 2 16 -1 19 -3 4 -6 -2 -5 -13z"/>
<path d="M147 1084 c-4 -4 -7 -15 -7 -25 0 -18 61 -36 80 -24 16 10 1 25 -25
25 -13 0 -28 7 -33 15 -4 9 -11 12 -15 9z"/>
<path d="M297 1083 c-8 -8 -9 -43 -1 -43 16 0 44 23 44 35 0 15 -31 21 -43 8z"/>
<path d="M37 1053 c-14 -13 -6 -33 13 -33 22 0 23 1 14 24 -7 17 -16 20 -27 9z"/>
<path d="M5302 23 c2 -10 14 -19 27 -21 27 -4 21 12 -10 29 -18 9 -20 8 -17
-8z"/>
<path d="M5373 3 c9 -2 23 -2 30 0 6 3 -1 5 -18 5 -16 0 -22 -2 -12 -5z"/>
</g>
</svg>
